<svg height="512pt" viewBox="0 -71 512 512" width="512pt" xmlns="http://www.w3.org/2000/svg"><path d="m497 0h-392c-57.898438 0-105 47.101562-105 105v250.679688c0 8.285156 6.714844 15 15 15h392c57.898438 0 105-47.101563 105-105v-250.679688c0-8.285156-6.714844-15-15-15zm0 0" fill="#f2f0ff"/><path d="m497 0h-198.0625v370.679688h108.0625c57.898438 0 105-47.101563 105-105v-250.679688c0-8.285156-6.714844-15-15-15zm0 0" fill="#9e97d6"/><path d="m105 0c-57.898438 0-105 47.101562-105 105v250.679688c0 8.285156 6.714844 15 15 15h134.574219v-370.679688zm0 0" fill="#7b73b8"/><path d="m394.851562 172.234375c0-8.285156-6.714843-15-15-15h-161.828124c-8.285157 0-15 6.714844-15 15s6.714843 15 15 15h161.828124c8.285157 0 15-6.714844 15-15zm0 0" fill="#7b73b8"/><path d="m414.855469 226.679688c0-8.28125-6.71875-15-15-15h-151.828125c-8.285156 0-15 6.71875-15 15 0 8.285156 6.714844 15 15 15h151.828125c8.28125 0 15-6.714844 15-15zm0 0" fill="#ff3d9e"/><path d="m419.855469 266.128906h-141.824219c-8.285156 0-15 6.714844-15 15 0 8.28125 6.714844 15 15 15h141.824219c8.285156 0 15-6.71875 15-15 0-8.285156-6.714844-15-15-15zm0 0" fill="#fccf53"/><path d="m379.851562 157.234375h-80.914062v30h80.914062c8.285157 0 15-6.714844 15-15s-6.714843-15-15-15zm0 0" fill="#403d66"/><path d="m399.855469 211.679688h-100.917969v30h100.917969c8.28125 0 15-6.714844 15-15 0-8.28125-6.71875-15-15-15zm0 0" fill="#a32464"/><path d="m419.855469 266.128906h-120.917969v30h120.917969c8.285156 0 15-6.71875 15-15 0-8.285156-6.714844-15-15-15zm0 0" fill="#ff9f00"/><path d="m512 15c0-8.285156-6.714844-15-15-15h-392c-57.898438 0-105 47.101562-105 105v2.199219h512zm0 0" fill="#00d0d9"/><path d="m497 0h-198.0625v107.199219h213.0625v-92.199219c0-8.285156-6.714844-15-15-15zm0 0" fill="#008eab"/></svg>